<svg width="23" height="25" viewBox="0 0 23 25" fill="none" xmlns="http://www.w3.org/2000/svg">
<path d="M11.25 2.5C8.48858 2.5 6.25 4.73858 6.25 7.5C6.25 10.2614 8.48858 12.5 11.25 12.5C14.0114 12.5 16.25 10.2614 16.25 7.5C16.25 4.73858 14.0114 2.5 11.25 2.5ZM3.75 7.5C3.75 3.35786 7.10786 0 11.25 0C15.3921 0 18.75 3.35786 18.75 7.5C18.75 11.6421 15.3921 15 11.25 15C7.10786 15 3.75 11.6421 3.75 7.5ZM6.25 20C4.17893 20 2.5 21.6789 2.5 23.75C2.5 24.4404 1.94036 25 1.25 25C0.559644 25 0 24.4404 0 23.75C0 20.2982 2.79822 17.5 6.25 17.5H16.25C19.7018 17.5 22.5 20.2982 22.5 23.75C22.5 24.4404 21.9404 25 21.25 25C20.5596 25 20 24.4404 20 23.75C20 21.6789 18.3211 20 16.25 20H6.25Z" fill="white"/>
</svg>
