<svg width="20" height="25" viewBox="0 0 20 25" fill="none" xmlns="http://www.w3.org/2000/svg">
<path d="M0 2.5C0 1.11929 1.11929 0 2.5 0H12.5C12.8315 0 13.1495 0.131696 13.3839 0.366117L19.6339 6.61612C19.8683 6.85054 20 7.16848 20 7.5V22.5C20 23.8807 18.8807 25 17.5 25H2.5C1.11929 25 0 23.8807 0 22.5V2.5ZM16.9822 7.5L12.5 3.01777V7.5H16.9822ZM10 2.5L2.5 2.5V22.5H17.5V10H11.25C10.5596 10 10 9.44036 10 8.75V2.5ZM5 13.75C5 13.0596 5.55964 12.5 6.25 12.5H13.75C14.4404 12.5 15 13.0596 15 13.75C15 14.4404 14.4404 15 13.75 15H6.25C5.55964 15 5 14.4404 5 13.75ZM5 18.75C5 18.0596 5.55964 17.5 6.25 17.5H13.75C14.4404 17.5 15 18.0596 15 18.75C15 19.4404 14.4404 20 13.75 20H6.25C5.55964 20 5 19.4404 5 18.75Z" fill="white"/>
</svg>
