<svg width="23" height="23" viewBox="0 0 23 23" fill="none" xmlns="http://www.w3.org/2000/svg">
<path fill-rule="evenodd" clip-rule="evenodd" d="M19.1298 3.26981C17.0248 1.16235 14.2254 0.00123596 11.243 0C5.09752 0 0.095993 5.00139 0.0935211 11.1485C0.0926972 13.1136 0.606033 15.0318 1.58176 16.7226L0 22.5L5.91051 20.9496C7.53909 21.8379 9.37257 22.3061 11.2385 22.3066H11.2431C17.3879 22.3066 22.39 17.3048 22.3923 11.1574C22.3936 8.17822 21.2349 5.37712 19.1298 3.26981ZM11.243 20.4237H11.2392C9.57637 20.423 7.94559 19.9762 6.52258 19.132L6.18434 18.9311L2.67696 19.8512L3.61313 16.4316L3.39272 16.081C2.46506 14.6055 1.9752 12.9001 1.97603 11.1492C1.97795 6.03987 6.13518 1.88306 11.2467 1.88306C13.7219 1.88388 16.0487 2.84903 17.7983 4.60066C19.5478 6.35229 20.5108 8.68057 20.51 11.1568C20.5078 16.2665 16.3508 20.4237 11.243 20.4237ZM16.3261 13.4832C16.0476 13.3437 14.6779 12.67 14.4224 12.5769C14.1673 12.4839 13.9813 12.4376 13.7958 12.7164C13.61 12.9952 13.0762 13.6228 12.9136 13.8086C12.751 13.9945 12.5887 14.0179 12.31 13.8783C12.0314 13.739 11.1338 13.4447 10.0697 12.4956C9.24156 11.7569 8.6825 10.8446 8.5199 10.5658C8.35757 10.2868 8.51852 10.1505 8.64212 9.99728C8.9437 9.62279 9.24568 9.23016 9.33852 9.04436C9.43149 8.85841 9.38493 8.69568 9.31517 8.55629C9.24568 8.4169 8.68854 7.04567 8.45645 6.4877C8.23013 5.9447 8.00066 6.01804 7.82954 6.00952C7.66722 6.00142 7.48141 5.99977 7.29561 5.99977C7.10994 5.99977 6.80809 6.0694 6.55266 6.34845C6.29736 6.62737 5.57776 7.30124 5.57776 8.67247C5.57776 10.0437 6.576 11.3684 6.71526 11.5543C6.85451 11.7403 8.67975 14.5541 11.4743 15.7607C12.1389 16.048 12.6578 16.2193 13.0625 16.3477C13.7299 16.5597 14.337 16.5298 14.8171 16.4581C15.3524 16.378 16.4652 15.7841 16.6976 15.1334C16.9297 14.4826 16.9297 13.9249 16.8599 13.8086C16.7904 13.6924 16.6046 13.6228 16.3261 13.4832Z" fill="white"/>
</svg>
